<svg xmlns="http://www.w3.org/2000/svg" viewBox="0 0 1299.2 1383.51"><defs><style>.cls-1{fill:#ffca9f;}.cls-2{fill:#001b35;}.cls-3{fill:#fff;}.cls-4{opacity:0.35;}.cls-5{opacity:0.3;}.cls-6{fill:#003f9a;}.cls-7{fill:#ffc83e;}.cls-8{fill:#002149;}.cls-9{fill:#fc9e17;}.cls-10{fill:#002b5e;}.cls-11{fill:#f28475;}.cls-12{fill:#003a7f;}.cls-13{fill:#f9d6b6;}.cls-14{opacity:0.15;}.cls-15{opacity:0.5;}</style></defs><g id="Layer_2" data-name="Layer 2"><g id="Layer_1-2" data-name="Layer 1"><path class="cls-1" d="M347.52,1294.91s73.51,14.27,65.13,44.56c-5.72,20.68-56.7,4.4-56.7,4.4S305.82,1380.64,246,1375c-38.87-3.64-20.18-24.4-21.57-26.17s-31.14,12.64-42.05,6.78c-14.35-7.71-4.12-19.87-4.12-19.87-.16-.7-10.53.79-13.87-3.18-9.81-11.68,29.3-27.49,52.7-32.86C274.11,1286.67,347.52,1294.91,347.52,1294.91Z"/><path class="cls-2" d="M258.69,1383.51q-6.6,0-13.38-.62c-15.56-1.46-25.25-5.8-29.61-13.27a17.69,17.69,0,0,1-2.39-9.52c-13.54,4.27-26.09,7.08-34.62,2.5-8.08-4.35-10.71-10.12-11.49-14.19a18.34,18.34,0,0,1-.16-5.84,15.59,15.59,0,0,1-8.65-4.9,13.59,13.59,0,0,1-2.65-13.46c6.64-19.8,59.1-32,59.63-32.16,57.62-13.21,130-5.32,133-5l.63.1c5.48,1.06,54,11.06,68.1,33.82a25.37,25.37,0,0,1,3.12,20.58,19.9,19.9,0,0,1-10.05,12.35c-14.92,8.07-42.47,1.52-52.88-1.41C345.89,1360.08,306.62,1383.51,258.69,1383.51Zm-34.33-42.68a7.48,7.48,0,0,1,6.31,3.16c3.21,4.08,1.23,8.5.17,10.88-.84,1.86-2.38,5.32-1.52,6.8.25.42,2.82,4.15,17.46,5.52,56,5.24,104-29.33,104.52-29.68l3.23-2.36,3.82,1.21c13.38,4.26,36,8.22,44.34,3.69a4.1,4.1,0,0,0,2.36-2.68,9.54,9.54,0,0,0-1.32-8.07c-7.85-12.68-39.22-23-57.39-26.58-5.19-.55-74.31-7.48-127.45,4.71-20.74,4.75-41.46,14.34-46.94,20,1.51.17,3.3.2,4.08.21,2.34,0,8.53.14,10,6.38l.87,3.83-2.53,3c-.67.85-1.93,3.17-1.63,4.6.2,1,1.46,2.17,3.46,3.24,4.36,2.35,21.43-3.29,27-5.14C217.9,1342,221.47,1340.83,224.36,1340.83Z"/><path class="cls-2" d="M266.68,1330.15c-3.37,1.54-6.84,3.34-10.14,5.19s-6.57,3.83-9.66,5.93c-6.16,4.18-11.93,9-15.71,14.11a7.93,7.93,0,0,1-12.76-9.41,7.54,7.54,0,0,1,1-1.11l.08-.07c6.91-6.34,14.38-10.25,21.89-13.6,3.76-1.65,7.56-3.09,11.39-4.4s7.62-2.46,11.64-3.47a3.61,3.61,0,0,1,2.39,6.78Z"/><path class="cls-2" d="M218.67,1318.92c-6.55,3.74-13.08,7.71-19.4,11.81a199.28,199.28,0,0,0-18,13,7.92,7.92,0,1,1-10.09-12.2,7.81,7.81,0,0,1,1.19-.81,208.69,208.69,0,0,1,21.49-10.25c7.2-3,14.39-5.77,21.75-8.37a3.78,3.78,0,0,1,3.13,6.84Z"/><path class="cls-1" d="M824.23,1294.91s-73.5,14.27-65.12,44.56c5.72,20.68,56.69,4.4,56.69,4.4s50.14,36.77,109.92,31.17c38.87-3.64,20.17-24.4,21.57-26.17s31.14,12.64,42,6.78c14.36-7.71,4.13-19.87,4.13-19.87.16-.7,10.53.79,13.87-3.18,9.81-11.68-29.3-27.49-52.7-32.86C897.65,1286.67,824.23,1294.91,824.23,1294.91Z"/><path class="cls-2" d="M913.07,1383.51c-47.94,0-87.2-23.43-98.63-31-10.41,2.93-38,9.48-52.88,1.41a19.9,19.9,0,0,1-10-12.35,25.37,25.37,0,0,1,3.12-20.58c14.09-22.76,62.61-32.76,68.1-33.82l.62-.1c3-.34,75.41-8.24,133,5,.53.13,53,12.36,59.63,32.16a13.59,13.59,0,0,1-2.65,13.46,15.59,15.59,0,0,1-8.65,4.9,18.64,18.64,0,0,1-.16,5.84c-.78,4.07-3.41,9.84-11.49,14.19-8.53,4.58-21.09,1.77-34.62-2.5a17.78,17.78,0,0,1-2.39,9.52c-4.36,7.47-14,11.81-29.61,13.27C921.93,1383.31,917.46,1383.51,913.07,1383.51Zm-95.84-48.37,3.24,2.37c.47.35,48.57,34.93,104.51,29.68,14.64-1.37,17.21-5.1,17.46-5.52.86-1.48-.69-4.94-1.52-6.8-1.06-2.38-3-6.8.17-10.88,3.88-4.92,8.71-3.33,17.47-.43,5.61,1.85,22.69,7.48,27,5.14,2-1.07,3.26-2.25,3.46-3.24.3-1.43-1-3.75-1.7-4.67l-2.36-3,.77-3.79c1.42-6.24,7.62-6.34,10-6.38.78,0,2.57,0,4.07-.21-5.47-5.67-26.19-15.26-46.93-20-53.15-12.19-122.26-5.26-127.45-4.71-18.18,3.59-49.54,13.9-57.39,26.58a9.51,9.51,0,0,0-1.32,8.07,4.11,4.11,0,0,0,2.35,2.68c8.37,4.53,31,.57,44.35-3.69Z"/><path class="cls-2" d="M907.36,1323.32c4,1,7.79,2.17,11.64,3.47s7.63,2.75,11.39,4.4c7.5,3.35,15,7.26,21.89,13.6l.05,0a7.92,7.92,0,0,1-10.71,11.68,8.41,8.41,0,0,1-1-1.13c-3.78-5.14-9.55-9.93-15.71-14.11-3.09-2.1-6.34-4.06-9.66-5.93s-6.77-3.65-10.15-5.19l-.1-.05a3.61,3.61,0,0,1,2.39-6.78Z"/><path class="cls-2" d="M956.17,1312.05c7.35,2.6,14.55,5.36,21.75,8.37a209.69,209.69,0,0,1,21.49,10.25,7.92,7.92,0,1,1-7.72,13.82,7.47,7.47,0,0,1-1.18-.81,199.28,199.28,0,0,0-18-13c-6.32-4.1-12.85-8.07-19.4-11.81l-.05,0a3.78,3.78,0,0,1,3.13-6.84Z"/><path class="cls-3" d="M839.72,963.39s109.49,24.38,165-76.51c54.32-98.65-45.26-220.55-44.86-311.36.55-122.92,86.47-230.76,226.37-191.65,141.93,39.68,120.74,213.57,49.54,256.3-41.94,25.17-77.29,13.62-88.61-32.62s47.79-74.34,28-110.92-97.37-36.78-115.23,38.31,44.25,206.07,47,289.75c2.61,78.24-45.6,154.5-114.68,190.4-82.37,42.8-149.77,31.89-149.77,31.89Z"/><g class="cls-4"><path class="cls-3" d="M1290.4,539.25c-1.92-55.48-31.72-111.68-104.93-132.13-132.3-37-216.3,57.43-225.53,171.74,0-1.12,0-2.24,0-3.33.55-122.92,86.46-230.78,226.37-191.67C1269.79,407.21,1296.81,477,1290.4,539.25Z"/></g><g class="cls-5"><path d="M1107,827.12c1.56,77.38-46.39,152.44-114.75,188-82.36,42.8-149.77,31.89-149.77,31.89l-1.41-42.42c27,.51,82.13-3.1,145.51-33.48C1046.68,942.26,1092.38,887.76,1107,827.12Z"/></g><g class="cls-5"><path class="cls-6" d="M1059.92,534.94c-.38,1.64-.74,3.3-1.06,5-1.62-18-1.08-34.66,2.74-49.24,19.66-75.15,104-75.18,125.49-38.65,10.16,17.24,1.14,32.64-9.92,49a36,36,0,0,0-2-4.37C1155.3,460.06,1077.78,459.85,1059.92,534.94Z"/></g><g class="cls-5"><path d="M1285.71,565.18c-8.58,32.87-26.56,61-49.9,75-42,25.16-77.28,13.61-88.61-32.64-4.23-17.22,1.33-31.91,8.93-45.48a8.68,8.68,0,0,0,.23,1c12.17,46.21,50.6,57.66,96.31,32.37C1265.29,588.42,1276.5,578,1285.71,565.18Z"/></g><path class="cls-2" d="M863.9,1056.16a151.78,151.78,0,0,1-22.64-1.4l-6.41-1L831.5,953.48l9.93,2.21c4.26.94,104.49,21.72,156.42-72.62,32-58.15,7.31-125.81-16.58-191.25-15.13-41.41-29.41-80.53-29.25-116.33.32-72.8,29.62-138.24,78.38-175.06,43.19-32.63,97.83-41,158-24.16,61.26,17.13,101.09,61.83,109.29,122.63,8,59.78-16.8,123.42-57.82,148-24,14.39-46.43,17.91-64.93,10.2-17.28-7.21-29.53-23.71-35.4-47.71-6.37-26,6.4-46.39,17.66-64.37,11.71-18.69,18.51-30.84,11-44.66-7.6-14-26.63-21.95-46.28-19.34-26.57,3.52-46.89,24.35-54.35,55.71-9.93,41.78,6.6,103.79,22.59,163.76,12.07,45.27,23.47,88,24.67,123.91,2.67,79.87-45.12,159.3-118.93,197.65C940,1051.13,891.1,1056.16,863.9,1056.16Zm-13.73-16.32c18.33,1.32,73.9,1.81,138.48-31.75,68.53-35.61,112.91-109.21,110.44-183.13-1.14-34.07-12.32-76-24.15-120.38-16.49-61.86-33.55-125.82-22.69-171.47,9-38,34.31-63.28,67.61-67.7,26.41-3.5,51.41,7.54,62.22,27.46,12.26,22.61.18,41.9-11.52,60.56-10.53,16.82-20.49,32.7-15.7,52.24,4.63,18.94,13.68,31.7,26.15,36.9,13.69,5.71,31.24,2.55,50.74-9.16,35.36-21.22,57.45-79.38,50.31-132.4-4.3-31.89-22.74-88.53-97.91-109.55C1128.9,376,1079,383.47,1039.9,413c-44.85,33.88-71.81,94.64-72.11,162.55-.15,33,13.67,70.8,28.29,110.85,23.94,65.54,51.07,139.84,15.59,204.27-30.17,54.81-75.81,73.78-108.79,80a183.47,183.47,0,0,1-55,1.94Z"/><path class="cls-1" d="M1092.86,551.6s108.44,25.36,104,1.82-40-33-40-33,58.31-66.16,55.91-100.72c-2.72-39.21-41.37-3.33-54.49,7.07,0,0,23-50.72,8.15-58.41-12.57-6.49-52.33,41-52.33,41s16.56-51.37-3.78-54c-26.76-3.5-65.3,91.42-115,113.56Z"/><path class="cls-2" d="M1172.36,571.23c-26.34,0-62.55-7.57-81.29-12a8,8,0,0,1-3.3-1.66l-97.62-82.73A7.87,7.87,0,0,1,992,461.68c23.74-10.58,45.56-40.23,64.81-66.39,20.58-28,36.84-50.09,54.4-47.79a17.37,17.37,0,0,1,12.78,8.19c4.26,6.73,4.75,16.92,3.77,26.86,15.59-15.36,31.74-26.61,42.16-21.23,12.22,6.31,10.38,25,5.37,42.25,11.61-7.73,22.84-12.27,32.34-8.18,7.68,3.3,12,11.29,12.88,23.74,2.09,30.14-34,77.67-50.44,97.71,12.38,5.35,30.88,16.34,34.45,35.11a13.55,13.55,0,0,1-4,12.7C1195.59,569.45,1185.13,571.23,1172.36,571.23Zm-75.85-26.88c42.1,9.68,83.75,13.91,92.32,9.47-3.75-14.59-25.74-23.55-34.11-25.81a7.89,7.89,0,0,1-3.87-12.83c15.61-17.73,55.74-69.34,54-95-.47-6.76-2.11-9.8-3.37-10.34-4.49-1.94-16,4.66-34.16,19.62-1.57,1.3-3,2.46-4.19,3.42a7.89,7.89,0,0,1-12.08-9.44c10-22,14.41-43.14,11.89-47.8-6.7,1.29-26.18,18.84-42.84,38.74a7.89,7.89,0,0,1-13.55-7.48c4.25-13.23,8.52-36,4.2-42.81a1.76,1.76,0,0,0-1.5-1c-8.34-1.08-25.7,22.52-39.66,41.49-17.72,24.09-37.49,51-60.44,65.66Z"/><path class="cls-3" d="M310.92,853.81c-12-4.62-19.64-8.12-20.11-8.32l0,0C123.65,838,54.69,752,33.63,714.8l0,0c-1-1.75-1.85-3.39-2.64-4.91-34.68-67.24-17.58-161.4,43.87-205,37.06-26.3,85-42.31,132.77-45.64,36.53-2.54,72.95,2.35,104.25,15.71,33.62,14.36,46.51,53.67,44.09,77.4-7.3,71.33-64.83,89.84-137.43,110.64A67.38,67.38,0,0,0,201.58,670c-37.06,22.85,23.58,65.69,56.68,75.33,0,0,1.14-.93,3.29-2.56,20.66-15.62,133.43-94.89,187.72-7.26,9.55,15.42,17.27,36,22.38,63q.68,3.45,1.26,7.06C490.71,913.27,361.88,873.44,310.92,853.81Z"/><path class="cls-6" d="M412.83,885.44c-51,0-113.22-27.29-123.94-32.17-76.16-3.63-140.62-23.6-191.62-59.38C52.21,762.29,31,727.13,24,713.49,6.39,679.41,1,636.92,9.14,596.93c8.46-41.55,30.17-76.53,61.13-98.51,69-48.94,171.86-61.89,244.7-30.76,38,16.25,51.45,59.75,48.82,85.45-8.05,78.74-73.65,97.53-143.1,117.42-10.4,3-22.81,8.33-22.83,17,0,15.71,33.71,40.93,60.19,49.55,17.74-6.33,117.69-39.34,178.41-3.53,24.67,14.55,39.56,38.43,44.26,71,4.59,31.85-2.25,54.8-20.31,68.2C447.91,881.94,431.08,885.44,412.83,885.44ZM226,466.44c-51.39,0-105.38,15.6-146.57,44.84-56.32,40-75.3,129.28-41.43,195,6.5,12.61,26.17,45.13,68.35,74.72,48.86,34.27,111,53.31,184.83,56.61a8.16,8.16,0,0,1,3,.73C325.88,853.18,416,886,451,860c13.05-9.68,17.78-27.6,14.08-53.27-4-27.57-16.3-47.63-36.63-59.63-58.86-34.74-166.34,5.21-167.41,5.62a7.86,7.86,0,0,1-5,.19c-25.85-7.53-74-36.66-74-65.47,0-10.16,6-24,34.26-32.08C294,633.13,341.6,615,348.1,551.5c2.08-20.3-9-56.38-39.33-69.34C284,471.56,255.39,466.44,226,466.44Z"/><path class="cls-3" d="M1132.52,532.15c-.2,33-14.93,66.67-31.8,90.58C1017.86,740.43,810,795.08,810,795.08s21,40.43,60,123.23q13.1,27.83,28.88,62.08c43.45,94.36,76,250,31.13,308.93-24.82,32.63-125.28,32.35-147.72,8.42-17.35-18.51-25.73-30.72-52.44-74.11-47-76.27-134.73-77.26-213.59-80.37-49.34-2-100.89-1.31-111.76,54-9.16,46.75-11.65,88.24-37.59,105.87-13.13,8.91-34.09,10.88-61,10.19C247.61,1311.89,202,1267.22,187,1209c-8.77-34-12.81-64.5-5.26-107.09,16-90.39,107.9-111.54,107.9-111.54s12.75-66.91,1.16-144.9l0,0c-1.52-10.35-3.49-20.92-6-31.53l62.23-29.69,102.22-48.73,176.94-84.38c64.41-9.22,119.27-31.6,166.86-58.31,15.22-8.52,29.67-17.49,43.47-26.62,72.12-47.77,125.9-99.77,171.72-115.09,63.44-21.21,100,14,110.91,31.4,1.3,2.11,2.51,4.24,3.61,6.39C1129.74,502.55,1132.6,517.28,1132.52,532.15Z"/><g class="cls-4"><path class="cls-3" d="M1132.52,532.15c-25-69.18-102-82.75-161.38-37.4-46.31,35.35-86.85,55.79-134.6,71.46,72.12-47.77,125.9-99.77,171.72-115.09,63.44-21.21,100,14,110.91,31.4,1.3,2.11,2.51,4.24,3.61,6.39C1129.74,502.55,1132.6,517.28,1132.52,532.15Z"/></g><g class="cls-5"><path d="M1100.72,622.73C1017.86,740.43,810,795.08,810,795.08s21,40.43,60,123.23c-79.19-109.63-92.42-55.83-123.61-64.8-24.86-7.17,37.36-34.83,28.19-50.21s-95.22-14.18-32.47-39.84c48.72-19.92,112.41,12.53,301.71-110.27,78.86-51.16,81.74-130.82,79-164.28C1145.19,532.88,1125.16,588,1100.72,622.73Z"/></g><path class="cls-2" d="M848.66,1322.72c-26.83,0-58.48-5-72.17-19.59-18-19.17-27-32.51-53.39-75.36-43.3-70.33-122.87-73.39-199.81-76.35l-7.38-.29c-51.23-2-94.39.17-103.71,47.7-1.56,8-2.94,15.86-4.27,23.47-6.65,38.07-12.4,71-36.64,87.41-13.16,8.93-32.78,12.4-65.6,11.55C246.78,1319.77,196,1275.45,179.37,1211c-8.89-34.39-13.2-66.34-5.38-110.44,14.48-81.65,88.35-110,108.7-116.38,2.94-19,12.21-92.51-5.55-168.44a7.89,7.89,0,0,1,15.36-3.59c21.32,91.18,5.58,176.15,4.9,179.72a7.89,7.89,0,0,1-6,6.21c-3.53.83-87,21.22-101.9,105.23-7.35,41.44-3.49,70.42,5.12,103.75,14.87,57.57,59.66,97.13,111.45,98.45,28.88.72,46.26-2,56.34-8.84,18.72-12.71,23.93-42.54,30-77.07,1.35-7.7,2.74-15.65,4.34-23.8,12.67-64.65,77.14-62.1,119.8-60.42l7.36.29c77.31,3,164.93,6.35,212.64,83.84,27.38,44.46,35.07,55.36,51.47,72.84,9.32,9.94,39,16,70.58,14.36,31-1.59,55.92-10.08,65.11-22.15,43.3-56.89,9.23-211.28-32-300.86C835,860.62,803.28,799.33,803,798.72a7.89,7.89,0,0,1,5-11.26c2.06-.54,206.1-55.32,286.32-169.26,24.52-34.82,44-90.15,18.2-131.5-11.9-19.09-46.72-46.49-101.7-28.11-27.58,9.22-59.37,33.24-96.18,61C843.15,573.6,754.24,640.76,627.33,659a7.88,7.88,0,0,1-2.23-15.61c122.87-17.62,210-83.42,280-136.29,37.92-28.64,70.66-53.38,100.69-63.41,64.29-21.5,105.73,11.7,120.08,34.71,29.88,47.9,8.61,110.17-18.68,148.93-74.42,105.7-243.6,160.48-285.81,172.8,10.57,20.89,39.88,79.75,84.65,177,41.27,89.64,79.42,252.39,30.23,317-17.44,22.92-59.55,27.46-76.85,28.35C856,1322.63,852.35,1322.72,848.66,1322.72Zm-559-332.34h0Z"/><path class="cls-1" d="M710.07,987.07c0,81.95-83.15,138.43-187.64,138.43-108.35,0-176.19-58.46-181.52-135.94C335.27,907.62,405.29,813.12,503,799.37,622.77,782.53,710.07,889.7,710.07,987.07Z"/><path class="cls-7" d="M674.94,684.76S600.23,873.24,483.06,881.17c-136,9.21-169-210.28-169-210.28l-14.59-1.39s18.41,240.65,183.42,233.66c148.59-6.29,211.9-223.93,211.9-223.93Z"/><g class="cls-5"><path class="cls-6" d="M694.75,679.23s-63.3,217.63-211.89,223.94c-165,7-183.42-233.68-183.42-233.68l7,.67C311.86,719.92,341,897,482.86,891c125.17-5.32,187-160.59,203.41-209.38Z"/></g><path class="cls-8" d="M476,909.22c-66.76,0-119.26-40.64-152.16-118-25.32-59.5-30.09-118.83-30.28-121.32a5.91,5.91,0,0,1,6.45-6.34L314.59,665a5.93,5.93,0,0,1,5.29,5c.32,2.14,33.84,214,162.78,205.26,112.07-7.59,186-190.84,186.78-192.69a5.92,5.92,0,0,1,3.91-3.52l19.82-5.53a5.91,5.91,0,0,1,7.27,7.35c-.66,2.25-16.45,55.83-50.89,111.08C603.46,865.91,545.9,906.41,483.11,909.07,480.72,909.17,478.34,909.22,476,909.22ZM306.07,676.07c2.06,17.46,9.08,64.71,28.75,110.81,32.42,76,82.14,113.17,147.79,110.37C606.88,892,670.89,730.69,685.7,687.9l-6.38,1.78c-10.12,24.39-82.77,189.73-195.86,197.39C425.21,891,376.37,854.69,342.2,782c-21.42-45.55-30.69-91.24-33.25-105.66Z"/><circle class="cls-7" cx="472.06" cy="948.15" r="66.97"/><path class="cls-9" d="M525,947.47a53,53,0,1,1-104-14.12,53,53,0,0,0,102.13,0A52.6,52.6,0,0,1,525,947.47Z"/><path class="cls-10" d="M472.06,881.18a67,67,0,1,1-67,67,67,67,0,0,1,67-67m0-14.8a81.78,81.78,0,1,0,81.77,81.77,81.87,81.87,0,0,0-81.77-81.77Z"/><path class="cls-1" d="M778.93,393.28s2.43-59.87,65.39-68.07c60.48-7.88,95.31,47.31,94.14,92.37-1.23,47.36-22.34,75.22-57.18,91.3-36.38,16.8-77.06,12.92-77.06,12.92"/><g class="cls-4"><path class="cls-3" d="M844.32,325.21c-32.46,4.23-48.81,22.19-57.05,38.6C797,352.65,811.76,343,834.45,340c60.48-7.88,95.31,47.3,94.14,92.37-.52,20-4.62,36.46-11.76,50.08,13.25-15.94,20.9-37,21.63-64.89C939.63,372.51,904.8,317.33,844.32,325.21Z"/></g><path class="cls-11" d="M782.28,419.19s1.65-32.54,38-37.26c34.87-4.54,54.7,25.29,53.83,49.78-.92,25.74-13.19,41-33.32,49.85-21,9.28-44.45,7.35-44.45,7.35"/><path class="cls-2" d="M801.74,497c-3.57,0-5.8-.17-6.09-.2a7.89,7.89,0,1,1,1.29-15.72c.21,0,21.77,1.62,40.61-6.7s27.88-21.93,28.63-42.92a43.09,43.09,0,0,0-13.82-32.52c-5.79-5.27-15.89-11.14-31.11-9.16-28.6,3.72-30.93,27.23-31.1,29.9a7.89,7.89,0,0,1-15.75-.86c.69-13.52,10.94-40.27,44.82-44.68,21.21-2.77,35.5,5.62,43.76,13.14a59.27,59.27,0,0,1,19,44.74c-1,27-13.75,46.07-38,56.79C827.79,495.89,810.63,497,801.74,497Z"/><path class="cls-2" d="M815.15,530.09c-6.83,0-11.14-.39-11.68-.44A7.89,7.89,0,0,1,805,514c.38,0,39.09,3.43,73-12.23,34.8-16.07,51.52-42.87,52.6-84.34.64-24.67-10.54-51.06-28.49-67.24-15.53-14-35.15-19.92-56.75-17.11-55.73,7.26-58.44,58.4-58.53,60.57a7.89,7.89,0,0,1-15.76-.64c0-.66,3.49-66.61,72.25-75.57,26.31-3.42,50.29,3.85,69.35,21,21.55,19.42,34.46,49.83,33.69,79.36-1.23,47.5-21.43,79.64-61.75,98.25C858.39,528.13,830.46,530.09,815.15,530.09Z"/><path class="cls-1" d="M159.67,473.31S142.1,416,79.12,424.1c-60.5,7.76-80.15,70-67.56,113.27,13.23,45.48,40.73,67.07,78.5,73.76,39.46,7,77.82-7.09,77.82-7.09"/><g class="cls-4"><path class="cls-3" d="M23.89,552.17C11.3,508.89,31,446.66,91.46,438.91c28.29-3.63,47.4,5.94,59.89,17.58-10.47-16.2-32.14-37.53-72.23-32.39-60.5,7.76-80.15,70-67.56,113.27,6.25,21.5,15.73,37.6,27.94,49.37C33.1,577.18,27.85,565.76,23.89,552.17Z"/></g><g class="cls-5"><path class="cls-6" d="M11.56,537.36c13.23,45.5,40.73,67.08,78.5,73.78,39.46,7,77.82-7.11,77.82-7.11l-1.76-28c-14.76,4-44.91,10.32-75.67,4.86-38.36-6.8-67-27.62-82.51-70.39A93.94,93.94,0,0,0,11.56,537.36Z"/></g><g class="cls-5"><path class="cls-12" d="M938.46,417.58c-1.24,47.36-22.34,75.23-57.17,91.3-36.39,16.79-77.07,12.91-77.07,12.91l-5.42-27.52c15.31.16,46.07-1.43,74.43-14.53C908.6,463.41,931,436,935.13,390.69A94.13,94.13,0,0,1,938.46,417.58Z"/></g><path class="cls-11" d="M163,499.22s-9.88-31.05-46.19-26.39C82,477.3,70.37,511.2,77.44,534.66c7.42,24.66,23.17,36.27,44.9,39.74,22.69,3.63,44.85-4.19,44.85-4.19"/><path class="cls-11" d="M77.44,534.67c7.42,24.65,23.16,36.25,44.89,39.73,2.49.39,5,.65,7.4.81a106.8,106.8,0,0,0,37.46-5l-4.17-71a42.17,42.17,0,0,0-10-15.5c-7.05-7-18.45-13.17-36.15-10.9C82,477.31,70.37,511.19,77.44,534.67Z"/><g class="cls-5"><path class="cls-6" d="M121.94,552.72a38.6,38.6,0,0,0,18,21.57,141.67,141.67,0,0,0,37.46-4.95l-1.9-53.48s-2.32-6.08-9.5-11.38c-.95.08-1.89.19-2.87.31C128.25,509.27,115.64,535.23,121.94,552.72Z"/></g><g class="cls-5"><path class="cls-6" d="M844.63,459.33a38.66,38.66,0,0,1-11.92,25.44,142,142,0,0,1-37.5,4.73l-11.75-52.21s.7-6.47,6.29-13.42c.94-.16,1.88-.3,2.85-.43C827.48,418.91,846.27,440.81,844.63,459.33Z"/></g><path class="cls-6" d="M135,583.25a87.46,87.46,0,0,1-13.88-1.06C94.9,578,77.67,562.77,69.89,536.94a59.26,59.26,0,0,1,7-48.1c6.07-9.37,17.77-21.11,39-23.83,33.89-4.35,50.6,18.92,54.7,31.82a7.88,7.88,0,0,1-15,4.82c-.86-2.57-9.1-24.67-37.68-21-15.22,2-23.5,10.2-27.76,16.77a43.11,43.11,0,0,0-5.09,35c6.05,20.11,18.32,31,38.59,34.23s40.79-3.77,41-3.85a7.89,7.89,0,0,1,5.24,14.88A115.08,115.08,0,0,1,135,583.25Z"/><path class="cls-2" d="M113.28,621a141.59,141.59,0,0,1-24.59-2.08C45,611.15,17.26,585.2,4,539.57c-8.25-28.36-3.5-61.05,12.4-85.31,14.07-21.47,35.42-34.61,61.73-38C146.9,407.46,167,470.36,167.21,471a7.89,7.89,0,0,1-15.08,4.64c-.67-2.16-16.64-50.83-72-43.72-21.59,2.77-39.07,13.48-50.54,31-13.24,20.21-17.34,48.57-10.45,72.27C30.72,575,53.7,596.68,91.44,603.37c36.79,6.52,73.37-6.61,73.73-6.74a7.89,7.89,0,0,1,5.43,14.81A182.56,182.56,0,0,1,113.28,621Z"/><path class="cls-3" d="M839.88,585.49c-5.6,42.88-38,71.29-86,94.18L680,689.21,259.58,743.54c-52.16-9.93-90.76-29.17-107.07-69.21-11.67-28.61-11.51-83.1,25.14-94.83-30.5-33.12-51.4-85.48-60.72-136.11C93.78,317.71,157.68,197.69,263,129a190,190,0,0,1-2.52-30.53,154.42,154.42,0,0,1,6.07-44.18,6.9,6.9,0,0,1,10.07-3.93c11.1,6.47,23.5,18.42,31,21.45a6.87,6.87,0,0,0,9.38-5.2c3.37-19.52,10.05-44.5,14.92-54.79a6.89,6.89,0,0,1,11-2c12.33,11.89,41.56,34.3,79.75,44,35.56,9.09,60.05,12.74,74.22,14.22h0a.44.44,0,0,1,.16,0c8.28.86,13,1,14.33,1l.3,0h.08c157,13.9,292.09,128.38,303.78,284,3.84,51.34-3,107.31-24.11,147.07,24.31,1.28,38.85,22.85,45.22,46.29C840.39,560,841.36,574.26,839.88,585.49Z"/><g class="cls-5"><path class="cls-6" d="M839.88,585.49c-5.6,42.88-38,71.29-86,94.18L680,689.21c93.61-31.34,142.2-80.79,156.69-142.75C840.39,560,841.36,574.26,839.88,585.49Z"/></g><g class="cls-4"><path class="cls-3" d="M116.94,440.92c0,.11,0,.2.06.31-8.51-114.3,53.84-227.38,162.25-295.06-5.8-35.64-7.24-55.49-4.95-63.89,1.16-4.27,2.49-5.71,6.32-3.46,11.11,6.48,23.51,18.41,31,21.46a6.92,6.92,0,0,0,9.4-5.22c3.37-19.51,10-44.5,14.91-54.77a6.88,6.88,0,0,1,11-2c12.32,11.88,41.18,36,79.76,44,32.44,6.8,56.67,11.4,71.65,14.1,0,0,0,0,0,0C652.12,102.65,788.74,205.57,815.6,351c0-.11,0-.22,0-.33C803.44,189.26,658.69,72.17,494.38,65.49c0,0,0,0,0,0-15-2.7-39.22-7.3-71.65-14.1-38.59-8.07-67.44-32.15-79.76-44a6.89,6.89,0,0,0-11,2C327,19.65,320.37,44.64,317,64.15a6.91,6.91,0,0,1-9.4,5.22c-7.47-3.05-19.87-15-31-21.46a6.89,6.89,0,0,0-10.06,3.93c-3.84,12.65-9.37,39.07-3.57,74.71C157.68,195.23,93.79,315.25,116.94,440.92Z"/></g><g class="cls-5"><path d="M793.07,592.83C764,733.35,594.94,787.74,507.45,797.82c-8.18,0-20.54.59-35.8.73-32.65.31-78.52-1.3-124.6-14.3-29.55-8.31-59.18-21.31-85.5-41.47,20.66-15.62,133.43-94.89,187.72-7.26l176.94-84.38C690.62,641.92,745.48,619.54,793.07,592.83Z"/></g><path class="cls-1" d="M456.82,331.35c-10.66-82.55-184.79-133.23-259,23.88-.46.94-.88,1.92-1.32,2.87-53.79,118.62,30.24,237.07,30.24,237.07s-50.11,20.6-42.94,70c4.25,29.32,36.88,67.2,75.89,79.14,20.77,6.44,47,11,74.62,14.17A734.17,734.17,0,0,0,682.66,713.8c26.72-10.3,51.9-21.6,71.33-33.4,34.7-21.46,56.64-66.4,53.28-95.83C801.66,535,748,527.81,748,527.81s51.14-135.92-31-237c-.65-.82-1.32-1.65-2-2.45-111.7-133.08-267.24-39.79-256.57,42.75"/><path class="cls-13" d="M465.56,300.6a59.5,59.5,0,0,0-1.3-6.9c.75-1.74,1.55-3.47,2.44-5.19a62.12,62.12,0,0,0,.4,11.89Z"/><g class="cls-14"><path class="cls-6" d="M807.25,597.36C804.27,778,107.4,845,191.82,624.94c6.67-58.16,204.5-90.17,204.5-90.17s-13.16,85.4-84.26,135.3c-22.88,16.06-14.56,52.1,13,56.77C498.7,756.29,782.9,683.81,807.25,597.36Z"/></g><path class="cls-2" d="M417.31,771.1a730,730,0,0,1-83.9-4.82c-31-3.57-56.59-8.44-76.05-14.46-43.15-13.21-76.92-54.9-81.37-85.54-5.51-38,19.88-63,39.31-74.23a319.24,319.24,0,0,1-31.36-68.52c-19.3-60-17.44-118.37,5.38-168.68l.41-.92c.33-.72.65-1.45,1-2.16,19.43-41.14,46.57-71.12,80.61-89A151.33,151.33,0,0,1,366,247.12c38.89,6.13,71.13,26.29,87.53,52.73,9.15-29.74,35.21-57.44,71.27-73.25a151.27,151.27,0,0,1,95.52-8.94c37.47,8.65,71.34,30.75,100.65,65.67.68.79,1.42,1.71,2.14,2.61,34.8,42.79,51.43,98.73,48,161.7a319.06,319.06,0,0,1-12.9,74.25c21.63,5.87,52.55,23.63,56.87,61.79,3.5,30.76-18.55,79.66-57,103.43-18.12,11-42.54,22.45-72.64,34A747.15,747.15,0,0,1,417.31,771.1ZM342.94,261.15c-35.78,0-98.29,13.41-138,97.45-.32.65-.58,1.23-.83,1.8l-.45,1c-51.22,113,28.69,228.07,29.51,229.22l5.71,8.08-9.15,3.77c-1.8.75-44.32,19-38.14,61.55,3.68,25.34,33.49,61.44,70.4,72.73,18.55,5.75,43.18,10.41,73.22,13.87C451,764,570.16,748.74,679.83,706.45c29.23-11.27,52.8-22.3,70.07-32.79,32.78-20.28,52.44-62.77,49.54-88.2-4.87-43-52-49.77-52.52-49.84l-9.82-1.31,3.49-9.28c.49-1.31,48.5-133-29.78-229.21-.63-.8-1.23-1.55-1.85-2.26C634.66,205,554.07,231,531.13,241c-41.93,18.39-69.25,55.87-64.95,89.1a7.88,7.88,0,0,1-6.81,8.83l-.78.06c-.24.06-.5.1-.75.14a7.9,7.9,0,0,1-8.84-6.81c-4.29-33.23-40.23-62.53-85.46-69.66A133.55,133.55,0,0,0,342.94,261.15Z"/><ellipse class="cls-11" cx="614.5" cy="608.72" rx="38.95" ry="21.65" transform="translate(-72.95 83.78) rotate(-7.36)"/><ellipse class="cls-11" cx="373.88" cy="639.82" rx="38.95" ry="21.65" transform="translate(-78.92 53.2) rotate(-7.36)"/><ellipse class="cls-6" cx="361.45" cy="543.65" rx="56.27" ry="58.19" transform="translate(-66.7 50.81) rotate(-7.36)"/><ellipse class="cls-3" cx="356.2" cy="560.36" rx="25.62" ry="26.5" transform="translate(-68.87 50.27) rotate(-7.36)"/><ellipse class="cls-3" cx="375.15" cy="515.16" rx="15.38" ry="15.9" transform="matrix(0.99, -0.13, 0.13, 0.99, -62.93, 52.33)"/><ellipse class="cls-6" cx="600.24" cy="512.79" rx="53.24" ry="58.19" transform="translate(-60.77 81.16) rotate(-7.36)"/><path class="cls-2" d="M259.6,751.43a8.44,8.44,0,0,1-1.49-.14c-61.21-11.66-97.09-35.17-112.91-74-8.17-20-11.66-52.94,0-77.9,4.6-9.87,11.3-17.56,19.65-22.66-25.93-32-46-79.39-55.67-131.92-11.39-61.88-2.57-125.31,25.51-183.42,26.14-54.08,67.49-101.07,119.77-136.18-4.76-34.69.73-60.56,4.56-73.2a14.78,14.78,0,0,1,21.59-8.45A164.88,164.88,0,0,1,297.19,55.3c4.52,3.48,9.17,7.07,12.26,8.69,3.28-18.45,9.8-43.85,15.33-55.53a14.79,14.79,0,0,1,23.63-4.32c5.32,5.14,34,31.31,76.22,42.07,34.66,8.85,58.68,12.47,72.58,13.95h.06l.21,0c4.92.24,9.47.56,13.88,1l1.12.09c79.25,7,154.18,39.3,211,90.88,58.76,53.35,94.26,124.53,100,200.4,4,53.3-3.39,104.2-20.3,141.74,9.36,2.81,17.78,8.54,24.74,16.9,17.61,21.17,22.62,53.91,19.82,75.36-5.43,41.56-34.15,73.42-90.41,100.27a7.89,7.89,0,0,1-6.79-14.24c51.67-24.66,76.83-51.82,81.57-88.07,2.38-18.28-2.52-46.66-16.32-63.23-6.86-8.25-15.17-12.69-24.7-13.19l-12.33-.65,5.78-10.92c18.87-35.63,27.33-87.67,23.21-142.79C796.76,207.84,672.42,91.6,511.92,77h0l-.76-.06c-1.79,0-6.83-.17-15.27-1l-.56-.06c-14.65-1.57-39.23-5.33-74.59-14.36-43.83-11.18-74.41-37.68-82.26-45-4.38,10.06-10.51,33-13.7,51.5a14.77,14.77,0,0,1-20.14,11.17c-5-2-10.58-6.34-17.07-11.34a167.55,167.55,0,0,0-13.81-10c-3.6,12.39-8.32,37-3,69.91l.41,2.52-2.1,4.19-1.79,1.17C159.36,206,103.38,326.26,124.69,442c9.85,53.53,31.82,103,58.75,132.2l8.37,9.09L180.05,587c-9.1,2.92-16,9.33-20.56,19.06-9.12,19.54-6.65,48.21.32,65.27,13.79,33.87,45,53.74,101.26,64.46a7.88,7.88,0,0,1-1.47,15.63Z"/><path class="cls-2" d="M505.13,598.13a2.38,2.38,0,0,1-3.33-2.23c.06-5.21,1.25-14.3,8.53-16.44,9.65-2.82,11.83,5.59,11.27,8.26-.65,3.1-2.9,5.29-7.68,6.95C511,595.7,507.59,597.07,505.13,598.13Z"/><path class="cls-2" d="M478.14,601.62a2.38,2.38,0,0,0,2.65-3c-1.38-5-4.84-13.52-12.43-13.73-10.05-.28-10,8.41-8.8,10.85,1.41,2.83,4.15,4.37,9.2,4.77C471.85,600.75,475.49,601.22,478.14,601.62Z"/><path class="cls-2" d="M466.45,643.76a54.15,54.15,0,0,0,15.76,6.6,47.36,47.36,0,0,0,16.25.81,44.6,44.6,0,0,0,15.3-4.8,42,42,0,0,0,12.56-10.46l.23-.27A5.87,5.87,0,0,1,536.73,641a37,37,0,0,1-13.93,19.19,46.15,46.15,0,0,1-22.24,8.6,47.41,47.41,0,0,1-23.43-3.18,40.91,40.91,0,0,1-18.25-14.22,5.45,5.45,0,0,1,7.29-7.79Z"/><ellipse class="cls-3" cx="593.26" cy="529.73" rx="25.62" ry="26.5" transform="translate(-62.99 80.39) rotate(-7.36)"/><ellipse class="cls-3" cx="612.2" cy="484.53" rx="15.38" ry="15.9" transform="translate(-57.05 82.46) rotate(-7.36)"/><path class="cls-6" d="M437.09,580.91a201.19,201.19,0,0,1-57,65c-12,8.84-23.56,16.37-42.92,19.73-2.87.48-5.91.89-9.15,1.2a81.7,81.7,0,0,1-18.43-.39h0A90.92,90.92,0,0,1,289,661.21a96.17,96.17,0,0,1-9.07-3.92A111.83,111.83,0,0,1,248.76,635C205,590,217,520,230.9,501.84c20.64-26.82,46-30.71,59-31.93l57.94-5.43,6.45-.61a137.26,137.26,0,0,1,15.72-.6,110.8,110.8,0,0,1,26.33,3.42,88.26,88.26,0,0,1,11,3.54c15.65,6.16,35.41,17.16,41.17,26.8C455.55,508.87,461.48,536.06,437.09,580.91Z"/><path class="cls-6" d="M712.11,616.74c-13.46,10.1-29,16.75-45.46,18.3a106.84,106.84,0,0,1-16.38.36,83,83,0,0,1-25.69-5.56c-4.42-1.66-8.68-3.61-13-5.68-2.16-1-4.33-2.12-6.48-3.27a202.82,202.82,0,0,1-39.87-27.39,195.49,195.49,0,0,1-21.79-22.57c-32.33-39.53-31.56-67.35-26.8-80.3,3.87-10.54,21.22-25,35.45-34C567.44,447,585.22,442.2,603,440.53l7.92-.74,56.47-5.3a97.79,97.79,0,0,1,15.35-.36,77,77,0,0,1,25.57,6,83.41,83.41,0,0,1,23,14.78C751.62,473,782.81,563.65,712.11,616.74Z"/><g class="cls-15"><path class="cls-3" d="M660.35,435.15,605.12,620.89a202.82,202.82,0,0,1-39.87-27.39L611,439.79Z"/></g><g class="cls-15"><path class="cls-3" d="M708.34,440.11,650.27,635.4a83,83,0,0,1-25.69-5.56l58.19-195.71Z"/></g><g class="cls-15"><path class="cls-3" d="M347.83,464.48,289,661.21a96.17,96.17,0,0,1-9.07-3.92A111.83,111.83,0,0,1,248.76,635l49.67-165.86Z"/></g><g class="cls-15"><path class="cls-3" d="M396.33,466.69,337.12,665.62c-2.87.48-5.91.89-9.15,1.2a81.7,81.7,0,0,1-18.43-.39L370,463.27A110.8,110.8,0,0,1,396.33,466.69Z"/></g><path class="cls-2" d="M320.53,675a100.23,100.23,0,0,1-44.11-10.67c-41.37-20.35-56.89-53.94-62.62-78.54-8.25-35.42-.8-73.67,10.84-88.8,24-31.16,54.49-34,64.52-35l64.39-6c21.06-2,40.12.33,56.66,6.85,16.33,6.45,37.92,18.19,45,30.09,6.09,10.19,17.18,39.51-11.23,91.71a209.19,209.19,0,0,1-59.3,67.56c-14.61,10.76-28.9,19.88-56,22.42C326,674.92,323.27,675,320.53,675Zm47.29-203.93q-6.24,0-12.8.62l-64.39,6c-14.46,1.36-35.75,5.83-53.49,28.88-8,10.44-15.49,43.36-8,75.6,5,21.28,18.39,50.35,54.22,68,14.36,7.06,29.53,10.08,43.85,8.74,23.11-2.17,35-9.74,48.12-19.42a193,193,0,0,0,54.8-62.4c25.22-46.33,15.22-69.94,11.56-76.07-3.93-6.57-20-16.68-37.29-23.52h0C393.56,473.27,381.29,471.11,367.82,471.11Z"/><path class="cls-2" d="M655.66,643.46c-20.23,0-33.64-5.54-47.48-12.19a209.21,209.21,0,0,1-70.83-55.35c-37.63-46-32.18-76.88-28.1-88,4.78-13,23.81-28.58,38.66-38,15-9.48,33.33-15.3,54.39-17.27l64.39-6c10-.94,40.53-3.81,69.89,22.35,14.26,12.7,28.7,48.89,27.18,85.23-1.06,25.23-10,61.13-46.92,88.82-15.13,11.36-32.23,18.22-49.46,19.84C663.22,643.28,659.33,643.46,655.66,643.46Zm21.78-201.57c-3.33,0-6.44.19-9.28.46l-64.39,6c-18.56,1.74-34.53,6.76-47.45,14.91h0c-15.75,9.95-29.62,22.86-32.26,30-2.46,6.71-7.9,31.76,25.5,72.6A193.26,193.26,0,0,0,615,617.06c14.7,7.06,27.78,12.28,50.9,10.12,14.32-1.34,28.66-7.13,41.46-16.74,31.93-24,39.72-55,40.63-76.87,1.38-33.07-12.08-64-21.91-72.79C708.62,445.21,691.14,441.89,677.44,441.89ZM552.11,456.63h0Z"/><path class="cls-2" d="M354.28,471.76a7.88,7.88,0,0,1-.73-15.73l239.81-22.5a7.88,7.88,0,1,1,1.47,15.7L355,471.73Z"/><path class="cls-2" d="M454.62,533.44a7.89,7.89,0,0,1-5.43-13.61,57.55,57.55,0,0,1,71-6.66,7.89,7.89,0,1,1-8.55,13.26,41.83,41.83,0,0,0-51.59,4.84A7.85,7.85,0,0,1,454.62,533.44Z"/><path class="cls-3" d="M356,552.31c-7.3,71.33-64.83,89.84-137.43,110.64-36.44,10.43-33.24,30.09-16.7,47.81a0,0,0,0,0,0,0c14.47,15.51,39.19,29.53,56.42,34.56l-14.33,95.71C103.48,820.41,46.76,740.53,31,709.87c-34.68-67.24-23.1-177,45.42-225.33C145.16,436.08,220,437.3,274,456.56a185,185,0,0,1,37.85,18.35C342.6,494.67,358.37,528.58,356,552.31Z"/><g class="cls-4"><path class="cls-3" d="M356,552.31q-.24,2.25-.54,4.44c-3.45-21.69-18.53-47.16-43.55-63.22-52.12-33.54-148.6-51.6-235.47,9.62-41.3,29.11-61.92,80.59-64.17,131.59C9.76,578,30.05,517.2,76.39,484.54c86.87-61.22,183.35-43.16,235.47-9.63C342.6,494.67,358.37,528.58,356,552.31Z"/></g><path class="cls-2" d="M290.8,853.35h-.36c-76.83-3.44-141.82-23.44-193.17-59.46C52.21,762.29,31,727.13,24,713.49,5.82,678.3-.29,632.84,7.21,588.78c8.11-47.73,31.07-87,64.65-110.7,85.54-60.28,184.32-48.36,244.28-9.8,34.7,22.31,50.24,59.56,47.65,84.83-8.05,78.74-73.65,97.53-143.1,117.42-10.4,3-22.81,8.33-22.83,17,0,16.19,35.82,42.49,62.61,50.29a7.88,7.88,0,1,1-4.41,15.14c-25.85-7.53-74-36.66-74-65.47,0-10.16,6-24,34.26-32.08C294,633.13,341.6,615,348.1,551.5c2-20-11.45-51.28-40.49-70C266.19,454.9,171.84,426.92,80.94,491,16.31,536.52,5,642.2,38,706.26c6.5,12.61,26.17,45.13,68.35,74.72,48.86,34.27,111,53.31,184.83,56.61a7.88,7.88,0,0,1-.35,15.76Z"/><g class="cls-5"><path d="M356,552.31c-7.3,71.33-64.83,89.84-137.43,110.64-36.44,10.43-33.24,30.09-16.7,47.81-31.41-16.44-32.49-32.59-21.94-46.23,22.61-29.26,28.07-67.86,17.05-103.17-20.11-64.42,52.3-96.05,77.08-104.8a185,185,0,0,1,37.85,18.35C342.6,494.67,358.37,528.58,356,552.31Z"/></g><path class="cls-1" d="M276.35,464.27c79.07-3.64,126.36-35.45,150.75-1.63,47.75,66.21-85.24,112.74-85.24,112.74s33.59,15.47,32.69,26.53c-1.64,20-19,26.22-91.94,14.58C187.25,601.27,197.62,467.89,276.35,464.27Z"/><path class="cls-2" d="M384.43,439.8c6.11-.35,12.64.65,18.52,4.8a18.51,18.51,0,0,1,7.17,19.94,27.26,27.26,0,0,1-1.63,4.56,33.5,33.5,0,0,1-2.2,3.88,44.69,44.69,0,0,1-5.47,6.56,65.41,65.41,0,0,1-12.72,9,152.76,152.76,0,0,1-27,11.45,273,273,0,0,1-27.78,7.52,3.94,3.94,0,0,1-1.93-7.64l.11,0a260.76,260.76,0,0,0,26.19-9.09A142.47,142.47,0,0,0,382,478.49a54.2,54.2,0,0,0,9.75-7.95c2.38-2.74,4.62-6.34,4.94-9a4.54,4.54,0,0,0-.3-2.94,4.59,4.59,0,0,0-1.85-1.89,12.05,12.05,0,0,0-3.79-1.25,18.22,18.22,0,0,0-4.72,0l-.25,0A7.89,7.89,0,1,1,384,439.83Z"/><path class="cls-2" d="M432.71,457a19.93,19.93,0,0,1,3.34,11.8,36.27,36.27,0,0,1-1.44,9.45,61.63,61.63,0,0,1-7.14,15.66,90.5,90.5,0,0,1-22.28,23.86c-8.66,6.51-18.21,11.34-27.74,15.36a259.26,259.26,0,0,1-29.29,10.27,3.94,3.94,0,0,1-2.42-7.5l.11,0a249.24,249.24,0,0,0,27.46-11.69c8.89-4.45,17.27-9.46,24.48-15.65a77.85,77.85,0,0,0,17.77-21.59,47.88,47.88,0,0,0,4.71-12.28,22.28,22.28,0,0,0,.51-5.6,4.5,4.5,0,0,0-.72-2.63A7.89,7.89,0,0,1,432.71,457Z"/><g class="cls-5"><path d="M942.79,1225.83c-2.23,24-8.22,44.44-19.09,58.72-9.19,12.08-34.14,20.56-65.11,22.15-31.59,1.64-61.27-4.41-70.59-14.36-16.4-17.48-24.09-28.37-51.46-72.83-47.72-77.5-135.34-80.87-212.64-83.85l-7.37-.29c-42.66-1.68-107.13-4.23-119.8,60.43-1.6,8.14-3,16.1-4.33,23.79-6,34.54-11.25,64.36-30,77.07-10.08,6.85-27.46,9.56-56.34,8.84-51.79-1.32-96.58-40.88-111.45-98.45a299.68,299.68,0,0,1-7.09-34.64c15.55,57.2,60.75,100.87,118.34,102.32,26.89.69,44.82-2.87,57.13-12.89,29.91-24.36,29.28-83.53,26.06-100-8.54-43.73-42.65-70-23.5-72.44,21.45-2.68,48.36,33.71,150.64,35.9,149.36,3.21,206.8-57.2,227.56-48.07,26.21,11.52-25.77,51.2-9,107,14.68,48.79,30.09,56.31,47.44,74.82,22.44,23.93,122.9,24.21,147.72-8.42A87.76,87.76,0,0,0,942.79,1225.83Z"/></g><path class="cls-3" d="M456.1,941.27l15.95-16,16,16L497.3,932l-25.25-25.24L446.82,932l9.28,9.29M431,947.82l9.28-9.28,9.29,9.28-9.29,9.28Zm25.12,6.56,15.95,16,16-16,9.28,9.28h0L472.05,988.9l-25.23-25.24h0l9.3-9.27m38.46-6.55,9.29-9.29,9.28,9.29-9.28,9.28Z"/><path class="cls-3" d="M481.47,947.82h0l-9.42-9.42-7,7h0l-.8.8-1.65,1.65h0v0l9.41,9.41,9.42-9.42h0"/><path class="cls-2" d="M338.92,630.18c-14.25,0-32.95-2-57.55-5.9-54.85-8.76-77.15-52.69-74.92-92.35,2-34.93,24.56-73.47,69.54-75.54h0c28.07-1.29,51.78-6.16,72.71-10.45,37-7.6,66.27-13.6,84.79,12.08,11.42,15.83,14.61,32.08,9.51,48.32-10.81,34.36-57.28,58.94-82.39,70,11.63,7,22.6,16.37,21.8,26.22-.71,8.65-3.89,15.08-9.71,19.65C365.9,627.54,355.38,630.18,338.92,630.18Zm-62.2-158c-35.21,1.62-52.94,32.58-54.52,60.66-1.83,32.59,16.52,68.69,61.65,75.89,28.72,4.58,68.17,9.68,79.12,1.09,1.55-1.22,3.2-3.14,3.68-8.13-1.54-3.95-14.74-13-28.09-19.12a7.89,7.89,0,0,1,.69-14.61c.77-.26,76.41-27.19,88.71-66.34,3.57-11.38,1.2-22.61-7.26-34.34-12-16.67-30.83-13.66-68.83-5.86-20.43,4.19-45.85,9.41-75.15,10.76Zm-.37-7.88h0Z"/><g class="cls-5"><path d="M299.44,808.85c7.9,18.37-3.77,106.84-3.77,106.84a218.25,218.25,0,0,0-4.88-70.22C123.65,838,54.69,752,33.63,714.8,35.31,716.52,83.53,796,225,799.44,265.15,800.42,291.54,790.47,299.44,808.85Z"/></g></g></g></svg>